# xmcd CD database file
#
# Track frame offsets:
#	150
#	12065
#	23423
#	35095
#	46985
#	57688
#	70980
#	80988
#	95928
#	108253
#	122245
#	134410
#
# Disc length: 1963 seconds
#
# Revision: 6
# Processed by: cddbd v1.5.2PL0 Copyright (c) Steve Scherf et al.
# Submitted via: CDex 1.70beta2
#
DISCID=ac07a90c
DTITLE=Stevie Wonder - I Was Made To Love Her
DYEAR=1967
DGENRE=R&B
TTITLE0=I Was Made To Love Her (Cosby-Moy-Hardaway-Wonder)
TTITLE1=Send Me Some Lovin' (Price-Marascalco)
TTITLE2=I'd Cry (Moy-Wonder)
TTITLE3=Everybody Needs Somebody (I Need You) (Paul-wonder-Broadnax)
TTITLE4=Respect (O.Redding)
TTITLE5=My Girl (robinson-White)
TTITLE6=Baby Don't You Do It (Holland-Dozier-Holland)
TTITLE7=A Fool For You (Ray Charles)
TTITLE8=Can I Get A Witness (Holland-Dozier-Holland)
TTITLE9=I Pity The Fool (D.Malone)
TTITLE10=Please, Please, Please (J.Brown-J.Terry)
TTITLE11=Every Time I See You, I Go Wild!
EXTD=YEAR: 1967
EXTT0=
EXTT1=
EXTT2=
EXTT3=
EXTT4=
EXTT5=
EXTT6=
EXTT7=
EXTT8=
EXTT9=
EXTT10=
EXTT11=
PLAYORDER=
